<?xml version="1.0" encoding="UTF-8" standalone="no"?>
<svg
   width="177"
   height="124"
   viewBox="0 0 177 124"
   fill="none"
   version="1.1"
   id="svg1116"
   sodipodi:docname="movies_logo_test.svg"
   inkscape:version="1.1 (c68e22c387, 2021-05-23)"
   xmlns:inkscape="http://www.inkscape.org/namespaces/inkscape"
   xmlns:sodipodi="http://sodipodi.sourceforge.net/DTD/sodipodi-0.dtd"
   xmlns:xlink="http://www.w3.org/1999/xlink"
   xmlns="http://www.w3.org/2000/svg"
   xmlns:svg="http://www.w3.org/2000/svg">
  <sodipodi:namedview
     id="namedview1118"
     pagecolor="#ffffff"
     bordercolor="#666666"
     borderopacity="1.0"
     inkscape:pageshadow="2"
     inkscape:pageopacity="0.0"
     inkscape:pagecheckerboard="0"
     showgrid="false"
     inkscape:zoom="3.1572581"
     inkscape:cx="-6.651341"
     inkscape:cy="52.735632"
     inkscape:window-width="1920"
     inkscape:window-height="1001"
     inkscape:window-x="-9"
     inkscape:window-y="-9"
     inkscape:window-maximized="1"
     inkscape:current-layer="svg1116" />
  <path
     id="path1058"
     style="fill-opacity:1;fill:url(#linearGradient4224);fill-rule:evenodd"
     d="M 70.013672 0 C 56.206572 0 45.013672 11.1929 45.013672 25 C 45.013672 38.8071 56.206572 50 70.013672 50 C 83.820772 50 95.013672 38.8071 95.013672 25 C 95.013672 11.1929 83.820772 0 70.013672 0 z M 70.013672 50 L 30.013672 50 L 15.013672 50 L 15.013672 89.150391 L 15.013672 91.5 C 42.513672 83.5 69.371272 78.9404 78.013672 77.5 C 87.013672 76 95.013672 75 95.013672 75 L 95.013672 73.113281 L 95.013672 50 L 70.013672 50 z M 30.013672 50 C 38.297972 50 45.013672 43.2843 45.013672 35 C 45.013672 26.7157 38.297972 20 30.013672 20 C 21.729372 20 15.013672 26.7157 15.013672 35 C 15.013672 43.2843 21.729372 50 30.013672 50 z M 147.01562 32.800781 L 97.013672 62.136719 L 97.013672 74.814453 L 111.51562 73 L 121.51562 72 L 147.01562 70 L 147.01562 32.800781 z M 64.283203 88.027344 L 60.654297 89.677734 L 60.654297 95.001953 L 62.546875 96.71875 L 62.546875 104.57227 L 64.8125 106.70508 L 69.519531 106.70508 L 69.519531 90.294922 L 67.386719 88.027344 L 64.283203 88.027344 z M 64.416016 88.578125 L 66.835938 88.578125 L 66.835938 104.02148 L 63.095703 104.02148 L 63.095703 93.351562 L 61.203125 94.166016 L 61.203125 90.029297 L 64.416016 88.578125 z M 64.613281 89.810547 L 62.392578 90.800781 L 62.392578 92.318359 L 64.306641 91.482422 L 64.306641 102.78906 L 65.625 102.78906 L 65.625 89.810547 L 64.613281 89.810547 z M 82.300781 91.384766 L 82.300781 103.41602 L 83.949219 104.96875 L 87.404297 104.96875 L 87.404297 101.24023 L 88.859375 103.41602 L 90.476562 104.96875 L 92.587891 104.96875 L 94.027344 102.82422 L 94.027344 103.41602 L 95.675781 104.96875 L 99.132812 104.96875 L 99.132812 93.03125 L 97.580078 91.384766 L 94.78125 91.384766 L 90.140625 98.232422 L 86.667969 93.03125 L 85.083984 91.384766 L 82.300781 91.384766 z M 107.49023 91.384766 C 106.50923 91.384766 105.60348 91.496703 104.77148 91.720703 C 103.95048 91.934003 103.23958 92.279766 102.64258 92.759766 C 102.04558 93.239766 101.58295 93.864812 101.25195 94.632812 C 100.92095 95.390113 100.75586 96.312391 100.75586 97.400391 C 100.75586 97.955091 100.79781 98.47805 100.88281 98.96875 C 100.96781 99.45945 101.11708 99.938903 101.33008 100.4082 C 101.55408 100.8772 101.85819 101.35203 102.24219 101.83203 C 102.62619 102.30103 103.12247 102.80294 103.73047 103.33594 C 104.33847 103.93294 105.11178 104.35461 106.05078 104.59961 C 106.98978 104.84461 108.0038 104.96875 109.0918 104.96875 L 110.85156 104.96875 C 111.82256 104.96875 112.71244 104.85681 113.52344 104.63281 C 114.34444 104.41981 115.04777 104.0718 115.63477 103.5918 C 116.23177 103.1228 116.69172 102.50895 117.01172 101.75195 C 117.34272 100.99495 117.50781 100.077 117.50781 99 C 117.50781 98.0293 117.35197 97.148675 117.04297 96.359375 C 116.73397 95.570075 116.33938 94.935078 115.85938 94.455078 C 115.29438 93.783078 114.74394 93.250169 114.21094 92.855469 C 113.68794 92.450169 113.15995 92.141034 112.62695 91.927734 C 112.09395 91.703734 111.54914 91.560094 110.99414 91.496094 C 110.45014 91.421394 109.87095 91.384766 109.25195 91.384766 L 107.49023 91.384766 z M 115.58789 91.384766 L 124.16211 103.41602 L 125.7793 104.96875 L 127.84375 104.96875 L 136.16211 93.03125 L 134.64258 91.384766 L 130.29102 91.384766 C 129.71502 92.216766 129.19628 92.968625 128.73828 93.640625 C 128.27928 94.301925 127.85298 94.915169 127.45898 95.480469 C 127.07498 96.035169 126.71209 96.558128 126.37109 97.048828 C 126.04009 97.528828 125.70891 97.996378 125.37891 98.455078 L 121.55469 93.03125 L 120.29102 91.384766 L 115.58789 91.384766 z M 136.48047 91.384766 L 136.48047 103.41602 L 138.12891 104.96875 L 141.55273 104.96875 L 141.55273 93.03125 L 140.00195 91.384766 L 136.48047 91.384766 z M 144.12305 91.384766 L 144.12305 103.41602 L 145.77148 104.96875 L 159.06836 104.96875 L 159.06836 101.49609 L 157.38867 99.847656 L 157.38867 97.287109 L 156.60352 96.503906 L 159.05273 96.503906 L 159.05273 93.03125 L 157.5 91.384766 L 144.12305 91.384766 z M 166.83984 91.384766 C 166.47684 91.384766 166.07105 91.411544 165.62305 91.464844 C 165.17505 91.518144 164.72267 91.603403 164.26367 91.720703 C 163.80467 91.838003 163.35692 91.996519 162.91992 92.199219 C 162.48292 92.391219 162.09295 92.626997 161.75195 92.904297 C 161.41095 93.181597 161.13292 93.512484 160.91992 93.896484 C 160.71692 94.269784 160.61523 94.700706 160.61523 95.191406 C 160.61523 95.703406 160.72255 96.151156 160.93555 96.535156 C 161.14855 96.908456 161.44341 97.234419 161.81641 97.511719 L 162.58398 98.296875 L 159.6875 100.08789 C 159.8045 100.27989 159.92864 100.47669 160.05664 100.67969 C 160.19564 100.88269 160.36073 101.10656 160.55273 101.35156 C 160.75573 101.58656 160.99448 101.85334 161.27148 102.15234 C 161.55948 102.44034 161.91213 102.77616 162.32812 103.16016 C 162.81912 103.66116 163.35636 104.0343 163.94336 104.2793 C 164.53036 104.5243 165.13295 104.70159 165.75195 104.80859 C 166.38095 104.91559 167.02087 104.96875 167.67188 104.96875 L 169.5918 104.96875 C 169.9328 104.96875 170.33397 104.94167 170.79297 104.88867 C 171.26197 104.83567 171.74142 104.74981 172.23242 104.63281 C 172.72342 104.51581 173.2075 104.35997 173.6875 104.16797 C 174.1675 103.97597 174.59575 103.74184 174.96875 103.46484 C 175.34175 103.18784 175.64586 102.86128 175.88086 102.48828 C 176.11586 102.11528 176.23242 101.68703 176.23242 101.20703 C 176.23242 100.74803 176.15681 100.31248 176.00781 99.896484 C 175.85881 99.480484 175.65639 99.137794 175.40039 98.871094 C 175.04839 98.508394 174.76573 98.231062 174.55273 98.039062 C 174.34973 97.836363 174.18464 97.682872 174.05664 97.576172 C 173.92864 97.469472 173.82695 97.399188 173.75195 97.367188 C 173.68795 97.324488 173.62917 97.277909 173.57617 97.224609 L 175.62305 95.847656 C 175.57005 95.772956 175.51784 95.692722 175.46484 95.607422 C 175.41184 95.511422 175.32403 95.389534 175.20703 95.240234 C 175.10003 95.090934 174.95177 94.908613 174.75977 94.695312 C 174.56777 94.471313 174.30756 94.193981 173.97656 93.863281 C 173.48556 93.265981 172.95758 92.803356 172.39258 92.472656 C 171.82758 92.141956 171.23423 91.896328 170.61523 91.736328 C 170.00723 91.576328 169.38414 91.479266 168.74414 91.447266 C 168.10414 91.404566 167.46884 91.384766 166.83984 91.384766 z M 82.701172 91.783203 L 84.892578 91.783203 L 89.916016 99.271484 L 94.972656 91.783203 L 97.179688 91.783203 L 97.179688 103.01562 L 94.427734 103.01562 L 94.427734 97.607422 L 90.8125 103.01562 L 89.052734 103.01562 L 85.453125 97.623047 L 85.453125 103.01562 L 82.701172 103.01562 L 82.701172 91.783203 z M 107.49023 91.783203 L 109.25195 91.783203 C 110.17995 91.783203 111.02692 91.890216 111.79492 92.103516 C 112.56292 92.306216 113.2243 92.632078 113.7793 93.080078 C 114.3443 93.528078 114.7828 94.109519 115.0918 94.824219 C 115.4008 95.528219 115.55469 96.387091 115.55469 97.400391 C 115.55469 98.413691 115.4008 99.277487 115.0918 99.992188 C 114.7828 100.69619 114.3443 101.2727 113.7793 101.7207 C 113.2243 102.1687 112.56292 102.49989 111.79492 102.71289 C 111.02692 102.91589 110.17995 103.01562 109.25195 103.01562 L 107.49023 103.01562 C 106.56223 103.01563 105.71064 102.91589 104.93164 102.71289 C 104.16364 102.49989 103.49664 102.1687 102.93164 101.7207 C 102.37664 101.2727 101.93914 100.69619 101.61914 99.992188 C 101.31014 99.277488 101.1543 98.413691 101.1543 97.400391 C 101.1543 96.387091 101.31014 95.528219 101.61914 94.824219 C 101.93914 94.109519 102.37664 93.528078 102.93164 93.080078 C 103.49664 92.632078 104.16364 92.306216 104.93164 92.103516 C 105.71064 91.890216 106.56223 91.783203 107.49023 91.783203 z M 116.37109 91.783203 L 119.76367 91.783203 L 125.1875 99.416016 C 126.0935 98.146716 126.98438 96.876722 127.85938 95.607422 C 128.73337 94.338122 129.61205 93.063203 130.49805 91.783203 L 133.89062 91.783203 L 126.05078 103.01562 L 124.37109 103.01562 L 116.37109 91.783203 z M 136.88086 91.783203 L 139.60156 91.783203 L 139.60156 103.01562 L 136.88086 103.01562 L 136.88086 91.783203 z M 144.52344 91.783203 L 157.09961 91.783203 L 157.09961 94.552734 L 147.29297 94.552734 L 147.29297 96.039062 L 155.43555 96.039062 L 155.43555 98.759766 L 147.29297 98.759766 L 147.29297 100.24805 L 157.11523 100.24805 L 157.11523 103.01562 L 144.52344 103.01562 L 144.52344 91.783203 z M 166.83984 91.783203 C 167.46884 91.783203 168.09389 91.804956 168.71289 91.847656 C 169.34189 91.890356 169.94353 91.992344 170.51953 92.152344 C 171.09553 92.312344 171.64034 92.551094 172.15234 92.871094 C 172.66434 93.180394 173.12234 93.613269 173.52734 94.167969 L 171.19141 95.736328 C 170.93541 95.480328 170.65275 95.271328 170.34375 95.111328 C 170.04475 94.951328 169.72577 94.829441 169.38477 94.744141 C 169.05377 94.658841 168.71137 94.605284 168.35938 94.583984 C 168.00737 94.551984 167.66131 94.535156 167.32031 94.535156 C 167.20331 94.535156 166.97381 94.542034 166.63281 94.552734 C 166.30181 94.552734 165.9548 94.572534 165.5918 94.615234 C 165.2398 94.657934 164.92544 94.723294 164.64844 94.808594 C 164.37144 94.893894 164.23242 95.020706 164.23242 95.191406 C 164.23242 95.340706 164.38069 95.469472 164.67969 95.576172 C 164.97869 95.682872 165.31912 95.772956 165.70312 95.847656 C 166.08712 95.911656 166.46122 95.965113 166.82422 96.007812 C 167.18722 96.039812 167.43255 96.061566 167.56055 96.072266 C 167.93355 96.104266 168.35984 96.140894 168.83984 96.183594 C 169.31984 96.226294 169.8115 96.291653 170.3125 96.376953 C 170.8135 96.462253 171.29858 96.584141 171.76758 96.744141 C 172.24758 96.893441 172.66825 97.095562 173.03125 97.351562 C 173.40425 97.596863 173.70373 97.905997 173.92773 98.279297 C 174.16273 98.641997 174.2793 99.084722 174.2793 99.607422 C 174.2793 100.04442 174.16736 100.43439 173.94336 100.77539 C 173.73036 101.10639 173.44308 101.40025 173.08008 101.65625 C 172.72808 101.90125 172.32228 102.11587 171.86328 102.29688 C 171.41528 102.46787 170.95728 102.60589 170.48828 102.71289 C 170.01928 102.81989 169.56591 102.89817 169.12891 102.95117 C 168.69191 102.99417 168.31219 103.01562 167.99219 103.01562 C 167.26719 103.01563 166.53678 103.00075 165.80078 102.96875 C 165.07578 102.93675 164.3705 102.83506 163.6875 102.66406 C 163.0045 102.48306 162.3702 102.20503 161.7832 101.83203 C 161.1962 101.44803 160.69067 100.9098 160.26367 100.2168 L 162.71289 98.695312 C 162.97989 99.036613 163.27642 99.309019 163.60742 99.511719 C 163.93842 99.714419 164.29106 99.874887 164.66406 99.992188 C 165.03706 100.09919 165.42141 100.1738 165.81641 100.2168 C 166.21141 100.2488 166.61062 100.26367 167.01562 100.26367 L 167.51172 100.26367 C 167.75672 100.26367 168.02912 100.25905 168.32812 100.24805 C 168.63712 100.23705 168.95148 100.22022 169.27148 100.19922 C 169.59148 100.17822 169.88534 100.14652 170.15234 100.10352 C 170.41934 100.05052 170.63759 99.986809 170.80859 99.912109 C 170.97959 99.826809 171.06445 99.724722 171.06445 99.607422 C 171.06445 99.468722 170.93106 99.351859 170.66406 99.255859 C 170.39706 99.159859 170.09295 99.08455 169.75195 99.03125 C 169.41095 98.96725 169.07977 98.920672 168.75977 98.888672 C 168.45077 98.856672 168.24372 98.834919 168.13672 98.824219 C 167.76372 98.781519 167.32522 98.732987 166.82422 98.679688 C 166.33322 98.615687 165.82011 98.535453 165.28711 98.439453 C 164.76411 98.332753 164.24833 98.199062 163.73633 98.039062 C 163.22433 97.879062 162.76437 97.672016 162.35938 97.416016 C 161.95437 97.160016 161.62977 96.850981 161.38477 96.488281 C 161.13977 96.125581 161.01562 95.692706 161.01562 95.191406 C 161.01562 94.754106 161.11269 94.369762 161.30469 94.039062 C 161.49669 93.697763 161.75227 93.400531 162.07227 93.144531 C 162.39227 92.888531 162.75516 92.674606 163.16016 92.503906 C 163.57616 92.333206 163.99683 92.194591 164.42383 92.087891 C 164.86083 91.981191 165.28713 91.905981 165.70312 91.863281 C 166.13012 91.809981 166.50884 91.783203 166.83984 91.783203 z M 38.447266 92.125 C 37.519266 92.125 36.5995 92.251812 35.6875 92.507812 C 34.7915 92.747813 33.927703 93.107891 33.095703 93.587891 C 32.263703 94.051891 31.478188 94.620969 30.742188 95.292969 C 30.022187 95.964969 29.382266 96.716828 28.822266 97.548828 L 31.318359 99.923828 L 35.734375 102.94922 C 36.454375 101.90922 37.254766 101.12566 38.134766 100.59766 C 39.014766 100.05366 39.999891 99.78125 41.087891 99.78125 L 41.302734 99.78125 C 41.398734 99.78125 41.495797 99.788687 41.591797 99.804688 C 41.303797 100.36519 40.863484 100.88523 40.271484 101.36523 C 39.695484 101.82923 39.023859 102.26016 38.255859 102.66016 C 37.503859 103.06016 36.686641 103.42023 35.806641 103.74023 C 34.942641 104.06023 34.086281 104.33264 33.238281 104.55664 C 32.390281 104.78064 31.582453 104.96538 30.814453 105.10938 C 30.062453 105.25338 29.422531 105.34105 28.894531 105.37305 L 28.894531 110.38867 L 31.367188 112.7168 L 50.134766 112.7168 L 50.134766 107.50977 L 48.023438 105.42188 C 48.487437 104.74987 48.854953 104.03716 49.126953 103.28516 C 49.398953 102.51716 49.535156 101.70189 49.535156 100.83789 C 49.535156 100.42189 49.486625 100.00439 49.390625 99.587891 C 49.310625 99.171891 49.150156 98.731578 48.910156 98.267578 C 48.670156 97.803578 48.334344 97.299859 47.902344 96.755859 C 47.486344 96.211859 46.943484 95.603641 46.271484 94.931641 C 45.823484 94.435641 45.2955 94.012156 44.6875 93.660156 C 44.0795 93.308156 43.42275 93.020875 42.71875 92.796875 C 42.03075 92.556875 41.319984 92.388969 40.583984 92.292969 C 39.847984 92.180969 39.135266 92.125 38.447266 92.125 z M 83.580078 92.679688 L 83.580078 102.11914 L 84.572266 102.11914 L 84.572266 94.712891 L 89.548828 102.11914 L 90.332031 102.11914 L 95.308594 94.695312 L 95.308594 102.11914 L 96.300781 102.11914 L 96.300781 92.679688 L 95.46875 92.679688 C 94.53005 94.044988 93.595969 95.405066 92.667969 96.759766 C 91.750569 98.114466 90.838241 99.484394 89.931641 100.87109 L 84.412109 92.679688 L 83.580078 92.679688 z M 107.49023 92.679688 C 106.71123 92.679687 105.98645 92.764847 105.31445 92.935547 C 104.65345 93.095547 104.07889 93.367953 103.58789 93.751953 C 103.10789 94.125253 102.72817 94.609731 102.45117 95.207031 C 102.18417 95.804331 102.05078 96.536391 102.05078 97.400391 C 102.05078 98.264391 102.18417 98.994497 102.45117 99.591797 C 102.72817 100.1888 103.10789 100.68045 103.58789 101.06445 C 104.07889 101.43745 104.65345 101.70986 105.31445 101.88086 C 105.98645 102.04086 106.71123 102.11914 107.49023 102.11914 L 109.25195 102.11914 C 110.03095 102.11914 110.74916 102.03428 111.41016 101.86328 C 112.07116 101.69228 112.64305 101.42183 113.12305 101.04883 C 113.61405 100.67583 113.99277 100.1888 114.25977 99.591797 C 114.53677 98.994497 114.67578 98.264391 114.67578 97.400391 C 114.67578 96.536391 114.53677 95.804331 114.25977 95.207031 C 113.99277 94.609731 113.61405 94.125253 113.12305 93.751953 C 112.64305 93.378653 112.07116 93.106247 111.41016 92.935547 C 110.74916 92.764847 110.03095 92.679688 109.25195 92.679688 L 107.49023 92.679688 z M 118.05078 92.679688 C 119.18078 94.268987 120.30773 95.843091 121.42773 97.400391 C 122.54773 98.957691 123.67173 100.53014 124.80273 102.11914 L 125.57031 102.11914 L 132.17969 92.679688 L 130.97852 92.679688 C 130.01852 94.066387 129.05961 95.448219 128.09961 96.824219 C 127.14961 98.189519 126.18875 99.559547 125.21875 100.93555 L 119.33008 92.679688 L 118.05078 92.679688 z M 137.76172 92.679688 L 137.76172 102.11914 L 138.7207 102.11914 L 138.7207 92.679688 L 137.76172 92.679688 z M 145.41992 92.679688 L 145.41992 102.11914 L 156.2207 102.11914 L 156.2207 101.14453 L 146.41211 101.14453 L 146.41211 97.880859 L 154.55664 97.880859 L 154.55664 96.919922 L 146.41211 96.919922 L 146.41211 93.65625 L 156.20312 93.65625 L 156.20312 92.679688 L 145.41992 92.679688 z M 167.32031 92.679688 C 167.06431 92.679688 166.74995 92.691591 166.37695 92.712891 C 166.01395 92.734191 165.62961 92.775844 165.22461 92.839844 C 164.81961 92.903844 164.41844 92.994028 164.02344 93.111328 C 163.62844 93.218028 163.27117 93.368547 162.95117 93.560547 C 162.64217 93.741847 162.38659 93.965722 162.18359 94.232422 C 161.99159 94.499122 161.89648 94.818106 161.89648 95.191406 C 161.89648 95.532706 161.99622 95.836816 162.19922 96.103516 C 162.40222 96.359516 162.66437 96.583391 162.98438 96.775391 C 163.30438 96.967391 163.66727 97.132784 164.07227 97.271484 C 164.47727 97.399484 164.88211 97.506497 165.28711 97.591797 C 165.69211 97.677097 166.08208 97.740503 166.45508 97.783203 C 166.82808 97.825903 167.14439 97.852581 167.40039 97.863281 C 167.57972 97.863745 167.80628 97.875657 168.08789 97.896484 C 168.38689 97.917784 168.70783 97.954513 169.04883 98.007812 C 169.38983 98.050513 169.73127 98.120797 170.07227 98.216797 C 170.42427 98.302097 170.73863 98.407156 171.01562 98.535156 C 171.29263 98.663156 171.5165 98.8187 171.6875 99 C 171.8685 99.1707 171.96094 99.372722 171.96094 99.607422 C 171.96094 99.842122 171.87412 100.0458 171.70312 100.2168 C 171.54312 100.3768 171.33145 100.51581 171.06445 100.63281 C 170.80845 100.74981 170.51922 100.84492 170.19922 100.91992 C 169.87922 100.98392 169.56023 101.03708 169.24023 101.08008 C 168.93123 101.11208 168.63637 101.13353 168.35938 101.14453 C 168.09237 101.15553 167.8807 101.16016 167.7207 101.16016 L 166.35938 101.16016 C 165.89037 101.14916 165.43237 101.11283 164.98438 101.04883 C 164.53638 100.97383 164.1035 100.85069 163.6875 100.67969 C 163.2715 100.50869 162.89373 100.25873 162.55273 99.927734 L 161.5918 100.55273 C 161.9118 100.90473 162.27931 101.18177 162.69531 101.38477 C 163.11131 101.58777 163.54881 101.74628 164.00781 101.86328 C 164.46681 101.97028 164.93602 102.04027 165.41602 102.07227 C 165.89602 102.10427 166.35597 102.11914 166.79297 102.11914 L 167.99219 102.11914 C 168.22719 102.11914 168.52567 102.10427 168.88867 102.07227 C 169.25167 102.04027 169.62844 101.98711 170.02344 101.91211 C 170.42844 101.83711 170.82961 101.74005 171.22461 101.62305 C 171.62961 101.49505 171.9925 101.34116 172.3125 101.16016 C 172.6325 100.96816 172.88808 100.74428 173.08008 100.48828 C 173.28308 100.23228 173.38477 99.938122 173.38477 99.607422 C 173.38477 99.138122 173.23917 98.753778 172.95117 98.455078 C 172.66317 98.145778 172.28541 97.902003 171.81641 97.720703 C 171.34741 97.528703 170.80722 97.383109 170.19922 97.287109 C 169.60222 97.180409 168.98837 97.090325 168.35938 97.015625 C 167.73037 96.940925 167.11191 96.872594 166.50391 96.808594 C 165.90691 96.733894 165.3733 96.636831 164.9043 96.519531 C 164.4353 96.391531 164.05558 96.226137 163.76758 96.023438 C 163.47958 95.810138 163.33594 95.532706 163.33594 95.191406 C 163.33594 94.839406 163.4842 94.562075 163.7832 94.359375 C 164.0822 94.146075 164.43484 93.992484 164.83984 93.896484 C 165.25584 93.789784 165.67189 93.7195 166.08789 93.6875 C 166.51489 93.6555 166.8507 93.640625 167.0957 93.640625 C 167.4477 93.640625 167.81059 93.650575 168.18359 93.671875 C 168.55659 93.682575 168.92411 93.719203 169.28711 93.783203 C 169.65011 93.847203 170.00275 93.944266 170.34375 94.072266 C 170.68475 94.189566 171.01131 94.355059 171.32031 94.568359 L 172.16797 93.960938 C 171.83697 93.704937 171.47508 93.495937 171.08008 93.335938 C 170.68508 93.165237 170.27928 93.031547 169.86328 92.935547 C 169.44728 92.839547 169.02098 92.776141 168.58398 92.744141 C 168.15698 92.701441 167.73631 92.679688 167.32031 92.679688 z M 38.447266 92.724609 C 39.343266 92.724609 40.270469 92.819719 41.230469 93.011719 C 42.206469 93.187719 43.087094 93.491828 43.871094 93.923828 C 44.671094 94.355828 45.327844 94.939781 45.839844 95.675781 C 46.351844 96.411781 46.607422 97.331547 46.607422 98.435547 C 46.607422 99.235547 46.478656 99.988859 46.222656 100.69336 C 45.982656 101.39736 45.646844 102.06155 45.214844 102.68555 C 44.798844 103.29355 44.295125 103.8458 43.703125 104.3418 C 43.127125 104.8378 42.504031 105.26872 41.832031 105.63672 L 47.207031 105.63672 L 47.207031 109.78906 L 29.494141 109.78906 L 29.494141 105.92578 C 30.086141 105.87778 30.823125 105.76584 31.703125 105.58984 C 32.583125 105.41384 33.502891 105.17314 34.462891 104.86914 C 35.422891 104.56514 36.38375 104.20506 37.34375 103.78906 C 38.30375 103.37306 39.158156 102.90105 39.910156 102.37305 C 40.678156 101.82905 41.303203 101.23766 41.783203 100.59766 C 42.263203 99.957156 42.503906 99.269203 42.503906 98.533203 C 42.503906 98.149203 42.350875 97.852531 42.046875 97.644531 C 41.742875 97.420531 41.382797 97.252625 40.966797 97.140625 C 40.566797 97.012625 40.15075 96.932391 39.71875 96.900391 C 39.28675 96.868391 38.9435 96.851562 38.6875 96.851562 C 37.5035 96.851563 36.454969 97.109094 35.542969 97.621094 C 34.646969 98.117094 33.863406 98.852125 33.191406 99.828125 L 29.638672 97.380859 C 30.118672 96.660859 30.68775 96.011547 31.34375 95.435547 C 31.99975 94.859547 32.703078 94.372656 33.455078 93.972656 C 34.223078 93.572656 35.023469 93.268547 35.855469 93.060547 C 36.703469 92.836547 37.567266 92.724609 38.447266 92.724609 z M 107.49023 93.65625 L 109.25195 93.65625 C 109.87095 93.65625 110.44552 93.724581 110.97852 93.863281 C 111.52252 93.991281 111.99172 94.205206 112.38672 94.503906 C 112.78172 94.791906 113.09045 95.17625 113.31445 95.65625 C 113.54945 96.13625 113.66797 96.717691 113.66797 97.400391 C 113.66797 98.093691 113.55408 98.680156 113.33008 99.160156 C 113.10608 99.629456 112.79172 100.0135 112.38672 100.3125 C 111.99172 100.6005 111.52252 100.81217 110.97852 100.95117 C 110.44552 101.07917 109.87095 101.14453 109.25195 101.14453 L 107.49023 101.14453 C 106.86123 101.14453 106.27447 101.07917 105.73047 100.95117 C 105.19747 100.82317 104.73484 100.6115 104.33984 100.3125 C 103.94484 100.0135 103.62953 99.629456 103.39453 99.160156 C 103.17053 98.680156 103.05859 98.093691 103.05859 97.400391 C 103.05859 96.717691 103.17053 96.13625 103.39453 95.65625 C 103.62953 95.17625 103.94484 94.791906 104.33984 94.503906 C 104.73484 94.205206 105.19747 93.991281 105.73047 93.863281 C 106.27447 93.724581 106.86123 93.65625 107.49023 93.65625 z M 39.046875 94.068359 C 38.326875 94.068359 37.614156 94.116891 36.910156 94.212891 C 36.222156 94.308891 35.559922 94.469359 34.919922 94.693359 C 34.279922 94.917359 33.671703 95.228906 33.095703 95.628906 C 32.519703 96.012906 31.991719 96.492359 31.511719 97.068359 L 32.902344 98.003906 C 33.574344 97.187906 34.399 96.57225 35.375 96.15625 C 36.367 95.72425 37.391266 95.507812 38.447266 95.507812 C 38.943266 95.507813 39.502953 95.541469 40.126953 95.605469 C 40.750953 95.669469 41.334906 95.813109 41.878906 96.037109 C 42.438906 96.245109 42.903484 96.549219 43.271484 96.949219 C 43.655484 97.333219 43.847656 97.861203 43.847656 98.533203 C 43.847656 99.397203 43.614391 100.19759 43.150391 100.93359 C 42.702391 101.65359 42.111 102.31778 41.375 102.92578 C 40.639 103.51778 39.799469 104.0532 38.855469 104.5332 C 37.927469 104.9972 36.976 105.40581 36 105.75781 C 35.04 106.09381 34.103406 106.38109 33.191406 106.62109 C 32.295406 106.84509 31.502453 107.013 30.814453 107.125 L 30.814453 108.44531 L 45.886719 108.44531 L 45.886719 106.98047 L 36.359375 106.98047 C 37.271375 106.59647 38.247109 106.15616 39.287109 105.66016 C 40.327109 105.16416 41.287969 104.57277 42.167969 103.88477 C 43.063969 103.19677 43.799 102.4132 44.375 101.5332 C 44.967 100.6372 45.263672 99.603547 45.263672 98.435547 C 45.263672 97.651547 45.064062 96.979922 44.664062 96.419922 C 44.264063 95.859922 43.750953 95.412172 43.126953 95.076172 C 42.518953 94.724172 41.847328 94.468594 41.111328 94.308594 C 40.391328 94.148594 39.702875 94.068359 39.046875 94.068359 z M 107.49023 94.552734 C 107.02123 94.552734 106.57348 94.599312 106.14648 94.695312 C 105.71948 94.791313 105.34272 94.951781 105.01172 95.175781 C 104.69172 95.399781 104.43419 95.693941 104.24219 96.056641 C 104.05019 96.419341 103.95508 96.867091 103.95508 97.400391 C 103.95508 97.944391 104.05019 98.397066 104.24219 98.759766 C 104.43419 99.122466 104.69172 99.416625 105.01172 99.640625 C 105.33172 99.853925 105.70386 100.00752 106.13086 100.10352 C 106.55786 100.19952 107.01023 100.24805 107.49023 100.24805 L 109.25195 100.24805 C 109.73195 100.24805 110.18433 100.19952 110.61133 100.10352 C 111.03833 100.00752 111.41047 99.847047 111.73047 99.623047 C 112.05047 99.399047 112.30142 99.106841 112.48242 98.744141 C 112.67442 98.381441 112.77148 97.933691 112.77148 97.400391 C 112.77148 96.867091 112.67442 96.419341 112.48242 96.056641 C 112.29042 95.693941 112.03484 95.399781 111.71484 95.175781 C 111.39484 94.951781 111.0227 94.791313 110.5957 94.695312 C 110.1687 94.599313 109.72095 94.552734 109.25195 94.552734 L 107.49023 94.552734 z M 109.0918 96.503906 L 110.85156 96.503906 C 111.36356 96.503906 111.83839 96.567312 112.27539 96.695312 C 112.33939 96.908613 112.37109 97.144391 112.37109 97.400391 C 112.37109 97.859091 112.28623 98.248359 112.11523 98.568359 C 111.95523 98.877659 111.73136 99.128313 111.44336 99.320312 C 111.15536 99.512312 110.81955 99.651028 110.43555 99.736328 C 110.06255 99.811028 109.66795 99.847656 109.25195 99.847656 L 107.49023 99.847656 C 107.21323 99.847656 106.94741 99.832781 106.69141 99.800781 C 106.43541 99.768781 106.1947 99.715325 105.9707 99.640625 C 105.9277 99.469925 105.90625 99.256 105.90625 99 C 105.90625 98.5307 105.99111 98.136406 106.16211 97.816406 C 106.33311 97.496406 106.56356 97.240828 106.85156 97.048828 C 107.15056 96.856828 107.491 96.718112 107.875 96.632812 C 108.259 96.547512 108.6648 96.503906 109.0918 96.503906 z M 10.902344 100.90039 C 8.8397238 100.90039 6.898125 101.42094 5.078125 102.46094 C 3.258125 103.50094 1.7326171 104.97486 0.50195312 106.88086 L 3.2324219 109.45508 L 7.9902344 112.62695 C 8.1808944 112.33295 8.3798906 112.05492 8.5878906 111.79492 C 8.7958906 111.51792 9.0210719 111.27441 9.2636719 111.06641 L 9.2636719 113.66797 L 10.875 115.12305 C 10.2684 115.12305 9.6894656 115.02889 9.1347656 114.83789 C 8.5801356 114.62989 8.049535 114.34252 7.546875 113.97852 L 5.4160156 111.7168 L 0.52734375 114.88867 C 0.75267375 115.25267 0.99585538 115.60908 1.2558594 115.95508 C 1.5331894 116.28508 1.8447362 116.64888 2.1914062 117.04688 C 2.5554062 117.42887 2.9814569 117.85231 3.4667969 118.32031 C 3.9521269 118.78831 4.5310313 119.33498 5.2070312 119.95898 C 5.8830313 120.63498 6.5945037 121.19005 7.3398438 121.62305 C 8.0851737 122.07405 8.8650575 122.42945 9.6796875 122.68945 C 10.511678 122.94945 11.369906 123.13038 12.253906 123.23438 C 13.137906 123.33837 14.064556 123.39062 15.035156 123.39062 C 16.005856 123.39062 17.002791 123.25261 18.025391 122.97461 C 19.048091 122.71461 19.976594 122.30891 20.808594 121.75391 C 21.657994 121.21691 22.351372 120.53122 22.888672 119.69922 C 23.426072 118.85022 23.693359 117.84559 23.693359 116.68359 C 23.693359 116.02559 23.528619 115.38377 23.199219 114.75977 C 22.869919 114.11877 22.463916 113.55436 21.978516 113.06836 L 21.873047 112.99023 C 22.219747 112.60923 22.507122 112.1848 22.732422 111.7168 C 22.957822 111.2318 23.070312 110.72898 23.070312 110.20898 C 23.070312 109.77598 23.018063 109.3422 22.914062 108.9082 C 22.827462 108.4582 22.654531 107.99186 22.394531 107.50586 C 22.151931 107.02086 21.796125 106.49192 21.328125 105.91992 C 20.877525 105.34792 20.288547 104.69675 19.560547 103.96875 C 19.057947 103.39675 18.467016 102.92106 17.791016 102.53906 C 17.115016 102.14106 16.387422 101.81917 15.607422 101.57617 C 14.844822 101.33417 14.056888 101.16064 13.242188 101.05664 C 12.444887 100.95264 11.665044 100.90039 10.902344 100.90039 z M 10.902344 101.55078 C 11.543744 101.55078 12.210997 101.59564 12.904297 101.68164 C 13.597697 101.75164 14.273041 101.88031 14.931641 102.07031 C 15.607641 102.24431 16.240778 102.47944 16.830078 102.77344 C 17.436778 103.06844 17.965416 103.44062 18.416016 103.89062 C 18.866716 104.34163 19.222422 104.87991 19.482422 105.50391 C 19.759822 106.11091 19.898438 106.81238 19.898438 107.60938 C 19.898438 107.88738 19.846187 108.18019 19.742188 108.49219 C 19.655587 108.78719 19.532953 109.08295 19.376953 109.37695 C 19.220953 109.65495 19.032041 109.90586 18.806641 110.13086 C 18.598641 110.35686 18.371606 110.521 18.128906 110.625 C 18.423606 110.781 18.710981 110.98066 18.988281 111.22266 C 19.282981 111.46566 19.542278 111.74269 19.767578 112.05469 C 19.992978 112.36669 20.175853 112.69697 20.314453 113.04297 C 20.453153 113.38997 20.521484 113.73603 20.521484 114.08203 C 20.521484 115.14003 20.270278 116.05984 19.767578 116.83984 C 19.264978 117.60284 18.62375 118.23433 17.84375 118.73633 C 17.06375 119.23933 16.18945 119.61347 15.21875 119.85547 C 14.26545 120.09847 13.336947 120.21875 12.435547 120.21875 C 11.274247 120.21875 10.174756 120.14038 9.1347656 119.98438 C 8.0948056 119.84638 7.1139725 119.58708 6.1953125 119.20508 C 5.2939725 118.82408 4.4457675 118.30353 3.6484375 117.64453 C 2.8510975 116.96853 2.1135 116.11031 1.4375 115.07031 L 5.2597656 112.60156 C 5.9010956 113.55556 6.7070644 114.32506 7.6777344 114.91406 C 8.6657344 115.48606 9.7410538 115.77344 10.902344 115.77344 L 12.175781 115.77344 C 12.747781 115.75644 13.310634 115.6958 13.865234 115.5918 C 14.437234 115.4878 14.931656 115.32366 15.347656 115.09766 C 15.781056 114.85566 15.998047 114.51603 15.998047 114.08203 C 15.998047 113.85703 15.867422 113.67611 15.607422 113.53711 C 15.347422 113.39911 15.00975 113.29461 14.59375 113.22461 C 14.19515 113.13861 13.752978 113.08636 13.267578 113.06836 C 12.782278 113.03436 12.313981 113.01758 11.863281 113.01758 C 11.412681 113.00058 11.006578 113.00058 10.642578 113.01758 L 9.9140625 113.01758 L 9.9140625 108.62305 L 11.109375 108.62305 C 11.698775 108.62305 12.313778 108.59692 12.955078 108.54492 C 13.596478 108.49292 14.161184 108.39877 14.646484 108.25977 C 15.149184 108.12177 15.400391 107.90438 15.400391 107.60938 C 15.400391 107.26337 15.23565 106.98534 14.90625 106.77734 C 14.57695 106.56934 14.187028 106.4052 13.736328 106.2832 C 13.303028 106.1622 12.860856 106.08383 12.410156 106.04883 C 11.959556 106.01483 11.621884 105.99609 11.396484 105.99609 C 10.061884 105.99609 8.882035 106.25734 7.859375 106.77734 C 6.854035 107.28034 5.979705 108.10209 5.234375 109.24609 L 1.4121094 106.69922 C 2.4694394 105.07022 3.8301406 103.80434 5.4941406 102.90234 C 7.1581406 102.00134 8.9610537 101.55078 10.902344 101.55078 z M 11.785156 102.98047 C 10.970556 102.98047 10.174521 103.02533 9.3945312 103.11133 C 8.6145712 103.19833 7.8688631 103.36347 7.1582031 103.60547 C 6.4475331 103.84847 5.7702362 104.19453 5.1289062 104.64453 C 4.5049062 105.07853 3.9340625 105.64294 3.4140625 106.33594 C 3.6567225 106.47494 3.8999081 106.62973 4.1425781 106.80273 C 4.3852381 106.95873 4.6264706 107.11548 4.8691406 107.27148 C 5.6144706 106.37048 6.5168788 105.69319 7.5742188 105.24219 C 8.6488787 104.79219 9.7583537 104.56641 10.902344 104.56641 C 11.370344 104.56641 11.941187 104.60287 12.617188 104.67188 C 13.293188 104.74187 13.944359 104.88828 14.568359 105.11328 C 15.192359 105.32128 15.720997 105.62544 16.154297 106.02344 C 16.587697 106.42244 16.804688 106.95137 16.804688 107.60938 C 16.804687 108.18138 16.595688 108.63194 16.179688 108.96094 C 15.763688 109.27294 15.261275 109.51645 14.671875 109.68945 C 14.082575 109.86345 13.475562 109.96795 12.851562 110.00195 C 12.244962 110.03695 11.74245 110.05273 11.34375 110.05273 L 11.34375 111.58789 C 11.62115 111.58789 11.968766 111.59628 12.384766 111.61328 C 12.800766 111.61328 13.232994 111.63941 13.683594 111.69141 C 14.134294 111.72641 14.576466 111.79444 15.009766 111.89844 C 15.460466 111.98544 15.858478 112.12445 16.205078 112.31445 C 16.569078 112.50545 16.864544 112.74897 17.089844 113.04297 C 17.315244 113.32097 17.427734 113.66603 17.427734 114.08203 C 17.427734 114.68903 17.228778 115.20119 16.830078 115.61719 C 16.448778 116.01619 15.972391 116.33613 15.400391 116.57812 C 14.845791 116.80413 14.254859 116.96827 13.630859 117.07227 C 13.006859 117.15927 12.462141 117.20312 11.994141 117.20312 C 11.283541 117.20312 10.598143 117.177 9.9394531 117.125 C 9.2981531 117.073 8.6750194 116.96111 8.0683594 116.78711 C 7.4790194 116.59711 6.9142831 116.32747 6.3769531 115.98047 C 5.8569531 115.61647 5.3544706 115.13239 4.8691406 114.52539 L 3.4394531 115.43555 C 3.8727831 116.00755 4.367205 116.51036 4.921875 116.94336 C 5.493875 117.35936 6.1008475 117.70542 6.7421875 117.98242 C 7.4008475 118.26042 8.0761913 118.46942 8.7695312 118.60742 C 9.4801913 118.72942 10.191744 118.78906 10.902344 118.78906 C 11.665044 118.78906 12.523263 118.7452 13.476562 118.6582 C 14.429962 118.5542 15.322297 118.33977 16.154297 118.00977 C 16.986297 117.68077 17.679775 117.20213 18.234375 116.57812 C 18.806375 115.95412 19.091797 115.12203 19.091797 114.08203 C 19.091797 113.54503 18.945091 113.07869 18.650391 112.67969 C 18.373091 112.26369 18.017384 111.91667 17.583984 111.63867 C 17.150684 111.34467 16.674297 111.11889 16.154297 110.96289 C 15.634297 110.80689 15.147966 110.70239 14.697266 110.65039 C 15.095966 110.63339 15.512012 110.55697 15.945312 110.41797 C 16.396012 110.26197 16.803969 110.05297 17.167969 109.79297 C 17.531969 109.53297 17.835525 109.22142 18.078125 108.85742 C 18.320825 108.49342 18.441406 108.07738 18.441406 107.60938 C 18.441406 106.77738 18.224416 106.07591 17.791016 105.50391 C 17.357716 104.91491 16.802953 104.43627 16.126953 104.07227 C 15.468353 103.69127 14.750703 103.41423 13.970703 103.24023 C 13.190703 103.06723 12.461156 102.98047 11.785156 102.98047 z " />
  <defs
     id="defs1114">
    <linearGradient
       id="linearGradient4110"
       inkscape:swatch="solid">
      <stop
         style="stop-color:#597173;stop-opacity:1;"
         offset="0"
         id="stop4108" />
    </linearGradient>
    <linearGradient
       id="paint0_linear"
       x1="30.0145"
       y1="20"
       x2="30.0145"
       y2="50"
       gradientUnits="userSpaceOnUse"
       spreadMethod="pad">
      <stop
         stop-color="#AAB2FF"
         id="stop1074" />
      <stop
         offset="1"
         stop-color="#ECA0FF"
         id="stop1076" />
    </linearGradient>
    <linearGradient
       id="paint1_linear"
       x1="70.0145"
       y1="0"
       x2="70.0145"
       y2="50"
       gradientUnits="userSpaceOnUse">
      <stop
         stop-color="#AAB2FF"
         id="stop1079" />
      <stop
         offset="1"
         stop-color="#ECA0FF"
         id="stop1081" />
    </linearGradient>
    <linearGradient
       id="paint2_linear"
       x1="55.0145"
       y1="50"
       x2="55.0145"
       y2="91.5"
       gradientUnits="userSpaceOnUse">
      <stop
         stop-color="#AAB2FF"
         id="stop1084" />
      <stop
         offset="1"
         stop-color="#ECA0FF"
         id="stop1086" />
    </linearGradient>
    <linearGradient
       id="paint3_linear"
       x1="122.015"
       y1="32.8"
       x2="122.015"
       y2="74.8143"
       gradientUnits="userSpaceOnUse">
      <stop
         stop-color="#AAB2FF"
         id="stop1089" />
      <stop
         offset="1"
         stop-color="#ECA0FF"
         id="stop1091" />
    </linearGradient>
    <linearGradient
       id="paint4_linear"
       x1="14"
       y1="97.9855"
       x2="14"
       y2="127.985"
       gradientUnits="userSpaceOnUse">
      <stop
         stop-color="#AAB2FF"
         id="stop1094" />
      <stop
         offset="1"
         stop-color="#ECA0FF"
         id="stop1096" />
    </linearGradient>
    <linearGradient
       id="paint5_linear"
       x1="40.779"
       y1="88.7645"
       x2="40.779"
       y2="118.765"
       gradientUnits="userSpaceOnUse">
      <stop
         stop-color="#AAB2FF"
         id="stop1099" />
      <stop
         offset="1"
         stop-color="#ECA0FF"
         id="stop1101" />
    </linearGradient>
    <linearGradient
       id="paint6_linear"
       x1="67.0145"
       y1="83"
       x2="67.0145"
       y2="113"
       gradientUnits="userSpaceOnUse">
      <stop
         stop-color="#AAB2FF"
         id="stop1104" />
      <stop
         offset="1"
         stop-color="#ECA0FF"
         id="stop1106" />
    </linearGradient>
    <linearGradient
       id="paint7_linear"
       x1="130.015"
       y1="92"
       x2="130.015"
       y2="105"
       gradientUnits="userSpaceOnUse">
      <stop
         stop-color="#AAB2FF"
         id="stop1109" />
      <stop
         offset="1"
         stop-color="#ECA0FF"
         id="stop1111" />
    </linearGradient>
    <linearGradient
       inkscape:collect="always"
       xlink:href="#paint0_linear"
       id="linearGradient4224"
       x1="97.553001"
       y1="-1.9003831"
       x2="94.78125"
       y2="91.384766"
       gradientUnits="userSpaceOnUse" />
  </defs>
</svg>
