<svg width="200" height="200" viewBox="0 0 200 200" fill="none" xmlns="http://www.w3.org/2000/svg">
<path d="M142.939 125.786H133.905L130.703 122.699C141.91 109.663 148.656 92.7387 148.656 74.3282C148.656 33.2762 115.38 0 74.3282 0C33.2762 0 0 33.2762 0 74.3282C0 115.38 33.2762 148.656 74.3282 148.656C92.7387 148.656 109.663 141.91 122.699 130.703L125.786 133.905V142.939L182.962 200C194.062 197.357 197.579 193.4 200 182.962L142.939 125.786ZM74.3282 125.786C45.8548 125.786 22.8702 102.802 22.8702 74.3282C22.8702 45.8548 45.8548 22.8702 74.3282 22.8702C102.802 22.8702 125.786 45.8548 125.786 74.3282C125.786 102.802 102.802 125.786 74.3282 125.786Z" fill="url(#paint0_linear)"/>
<defs>
<linearGradient id="paint0_linear" x1="100" y1="0" x2="100" y2="200" gradientUnits="userSpaceOnUse">
<stop stop-color="#AAB2FF"/>
<stop offset="1" stop-color="#ECA0FF"/>
</linearGradient>
</defs>
</svg>
