<svg xmlns="http://www.w3.org/2000/svg" width="292.4" height="292.4">
  <defs>
    <linearGradient id="gradient" x1="0%" y1="0%" x2="0%" y2="100%">
      <stop offset="5%" stop-color="#aab2ff"/>
      <stop offset="95%" stop-color="#eca0ff"/>
    </linearGradient>
  </defs>

<path xmlns="http://www.w3.org/2000/svg" fill="url(#gradient)" d="M287 69.4a17.6 17.6 0 0 0-13-5.4H18.4c-5 0-9.3 1.8-12.9 5.4A17.6 17.6 0 0 0 0 82.2c0 5 1.8 9.3 5.4 12.9l128 127.9c3.6 3.6 7.8 5.4 12.8 5.4s9.2-1.8 12.8-5.4L287 95c3.5-3.5 5.4-7.8 5.4-12.8 0-5-1.9-9.2-5.5-12.8z" style="&#10;"/></svg>